<?xml version="1.0" encoding="UTF-8" standalone="no" ?>
<!DOCTYPE svg PUBLIC "-//W3C//DTD SVG 1.1//EN" "http://www.w3.org/Graphics/SVG/1.1/DTD/svg11.dtd">
<svg xmlns="http://www.w3.org/2000/svg" xmlns:xlink="http://www.w3.org/1999/xlink" version="1.1" width="770" height="220" viewBox="0 0 513.33 146.67" xml:space="preserve">
<desc>Created with Fabric.js 3.6.3</desc>
<defs>
</defs>
<g transform="matrix(3.76 0 0 3.76 267.31 36.45)" style=""  >
		<text xml:space="preserve" font-family="'Open Sans', sans-serif" font-size="18" font-style="normal" font-weight="normal" style="stroke: none; stroke-width: 1; stroke-dasharray: none; stroke-linecap: butt; stroke-dashoffset: 0; stroke-linejoin: miter; stroke-miterlimit: 4; fill: rgb(0,0,0); fill-rule: nonzero; opacity: 1; white-space: pre;" ><tspan x="-56.28" y="5.65" style="font-family: 'Playfair Display', serif; ">ILUMINATTA</tspan></text>
</g>
<g transform="matrix(1 0 0 1 143.5 250)"  >
<line style="stroke: rgb(0,0,0); stroke-width: 2; stroke-dasharray: none; stroke-linecap: butt; stroke-dashoffset: 0; stroke-linejoin: miter; stroke-miterlimit: 4; fill: rgb(0,0,0); fill-rule: nonzero; opacity: 1;"  x1="0" y1="0" x2="0" y2="0" />
</g>
<g transform="matrix(1.19 0 0 1.19 254.69 77.31)"  >
<line style="stroke: rgb(153, 35, 57); stroke-width: 5; stroke-dasharray: none; stroke-linecap: butt; stroke-dashoffset: 0; stroke-linejoin: miter; stroke-miterlimit: 4; fill: rgb(0,0,0); fill-rule: nonzero; opacity: 1;"  x1="-195" y1="0" x2="195" y2="0" />
</g>
<g transform="matrix(1 0 0 1 182.5 242)"  >
<line style="stroke: rgb(0,0,0); stroke-width: 2; stroke-dasharray: none; stroke-linecap: butt; stroke-dashoffset: 0; stroke-linejoin: miter; stroke-miterlimit: 4; fill: rgb(0,0,0); fill-rule: nonzero; opacity: 1;"  x1="0" y1="0" x2="0" y2="0" />
</g>
<g transform="matrix(1 0 0 1 187.5 235)"  >
<line style="stroke: rgb(0,0,0); stroke-width: 2; stroke-dasharray: none; stroke-linecap: butt; stroke-dashoffset: 0; stroke-linejoin: miter; stroke-miterlimit: 4; fill: rgb(0,0,0); fill-rule: nonzero; opacity: 1;"  x1="0" y1="0" x2="0" y2="0" />
</g>
<g transform="matrix(1 0 0 1 93.5 209)"  >
<line style="stroke: rgb(0,0,0); stroke-width: 2; stroke-dasharray: none; stroke-linecap: butt; stroke-dashoffset: 0; stroke-linejoin: miter; stroke-miterlimit: 4; fill: rgb(0,0,0); fill-rule: nonzero; opacity: 1;"  x1="0" y1="0" x2="0" y2="0" />
</g>
<g transform="matrix(-0.3 0 0 0.16 496.86 77.04)"  >
<polygon style="stroke: rgb(153, 35, 57); stroke-width: 5; stroke-dasharray: none; stroke-linecap: butt; stroke-dashoffset: 0; stroke-linejoin: miter; stroke-miterlimit: 4; fill: rgb(255,255,0); fill-opacity: 0; fill-rule: nonzero; opacity: 1;" vector-effect="non-scaling-stroke"  points="0,-50 35,0 0,50 -35,0 " />
</g>
<g transform="matrix(-0.3 0 0 0.16 17.19 77.55)"  >
<polygon style="stroke: rgb(153, 35, 57); stroke-width: 5; stroke-dasharray: none; stroke-linecap: butt; stroke-dashoffset: 0; stroke-linejoin: miter; stroke-miterlimit: 4; fill: rgb(255,255,0); fill-opacity: 0; fill-rule: nonzero; opacity: 1;" vector-effect="non-scaling-stroke"  points="0,-50 35,0 0,50 -35,0 " />
</g>
<g transform="matrix(2.12 0 0 2.12 257.06 118.49)" style=""  >
		<text xml:space="preserve" font-family="'Open Sans', sans-serif" font-size="18" font-style="normal" font-weight="normal" style="stroke: none; stroke-width: 1; stroke-dasharray: none; stroke-linecap: butt; stroke-dashoffset: 0; stroke-linejoin: miter; stroke-miterlimit: 4; fill: rgb(0,0,0); fill-rule: nonzero; opacity: 1; white-space: pre;" ><tspan x="-71.17" y="5.65" style="font-family: 'Open Sans', sans-serif; ">Ótica &amp; Joalheria</tspan></text>
</g>
</svg>